<?xml version="1.0" encoding="utf-8"?>
<!-- Generator: Adobe Illustrator 18.1.1, SVG Export Plug-In . SVG Version: 6.00 Build 0)  -->
<svg version="1.1" id="Layer_1" xmlns="http://www.w3.org/2000/svg" xmlns:xlink="http://www.w3.org/1999/xlink" x="0px" y="0px"
	 viewBox="0 0 835 120.1" enable-background="new 0 0 835 120.1" xml:space="preserve">
<g>
	<g>
		<path fill="#FFFFFF" d="M12.1,106.6c0-5.3,0.1-9.2,0.2-11.7l8-0.4c0.3,0,0.5-0.1,0.5-0.4l0.1-65.3l-8.6-0.4
			c0-2.8,0.1-6.6,0.3-11.5c2,0,5.5,0,10.7,0.1c5.2,0,9,0.1,11.3,0.1c2.5,0,6.1,0,11-0.1c4.9,0,8.2-0.1,10-0.1
			c0,5.2-0.1,9.1-0.3,11.6l-7.9,0.3c-0.2,0-0.3,0.2-0.3,0.7l-0.1,25.7c0.6,0,2.9-0.2,7-0.7c5.2-4.8,12.6-13.1,22.3-24.8
			c0.5-0.5,0.3-0.8-0.6-0.8l-7.2-0.3c0-5.2,0-9.1,0.1-11.6h22.7c1.8,0,4.5,0,7.8-0.1c3.4,0,5.8-0.1,7.2-0.1c0,5.2-0.1,9.1-0.1,11.6
			l-5.8,0.3C90.5,38.5,81.4,47.2,73,55v1.1c5.2,3.4,10.1,9.6,14.8,18.9c4.1,8.1,6.8,13.2,8,15.1c1.4,2.7,3.2,4.1,5.3,4.2l7.7,0.7
			c0,2.9-0.1,6.8-0.4,11.5c-5.7,0.2-11.3,0.3-16.6,0.3c-2.2,0.1-7.6,0.1-16,0.1c-3.1-4.3-6.8-11.3-10.9-21
			c-5.3-12.6-9.5-18.9-12.6-18.9c-2.8,0-4.7,0-5.7,0.1l-0.1,27.5l8.8,0.4c0,5.3-0.1,9.2-0.1,11.7c-1.9,0-5.3,0-10.2-0.1
			c-4.9,0-8.7-0.1-11.2-0.1c-2.3,0-5.9,0-10.9,0.1C17.9,106.6,14.3,106.6,12.1,106.6z"/>
		<path fill="#FFFFFF" d="M113.3,28.4c0-5.2,0.1-9,0.2-11.5c1.8,0,5.2,0,10.1,0.1c4.9,0,8.4,0.1,10.7,0.1c2.7,0,6.8,0,12.1-0.1
			c5.4,0,9.2-0.1,11.4-0.1c0,5.3-0.1,9.2-0.3,11.6l-10.5,0.3l-0.3,41.8c-0.1,8.6,1.8,14.9,5.6,19c2.9,3,7,4.5,12.3,4.5
			c4.7,0,8.6-1.6,11.6-4.9c3.5-3.5,5.3-10.3,5.3-20.3c0-18.7-0.1-31.9-0.3-39.5c0-0.2-0.2-0.4-0.6-0.5l-10.8-0.3
			c0-1.3,0-3.3,0.1-5.9c0.1-2.6,0.1-4.5,0.1-5.7c1.8,0,5.1,0,9.9,0.1c4.7,0,8.3,0.1,10.6,0.1c2.2,0,5.4,0,9.5-0.1
			c4.1,0,7-0.1,8.7-0.1c0,1.2,0,3.1-0.1,5.7c-0.1,2.6-0.1,4.6-0.1,5.9l-7.3,0.4l-0.3,37.6c-0.1,14.7-3.9,25.4-11.4,32.1
			c-6.8,6.3-16,9.4-27.8,9.4c-13.2,0-23.3-2.8-30.1-8.5c-7.1-6-10.7-15.5-10.7-28.5V29.6c0-0.5-0.3-0.8-0.7-0.8L113.3,28.4z"/>
		<path fill="#FFFFFF" d="M213.6,28.8c0-5.4,0-9.3,0.1-11.7h19.3c3.1,0,7.9,0,14.1-0.1c6.3,0,10.6-0.1,12.9-0.1
			c0,5.4-0.1,9.4-0.1,11.9l-9.2,0.5c4.6,10.1,9.5,20.3,14.8,30.6h0.7c6-10.1,11.3-20.1,15.7-29.9c0.2-0.5,0-0.7-0.4-0.7l-8.3-0.3
			c0-5.4,0-9.4,0.1-12h21.8c1.7,0,4.2,0,7.2-0.1c3.1,0,5.2-0.1,6.4-0.1c0,5.4-0.1,9.4-0.1,12l-6.7,0.4c-12.5,19.4-22.3,34.1-29.4,44
			l-0.1,21.6l11.3,0.4c0,2.6-0.1,6.4-0.3,11.3c-2,0-5.8,0-11.4-0.1c-5.5,0-9.7-0.1-12.5-0.1c-2.3,0-6.2,0-11.7,0.1
			c-5.4,0-9.4,0.1-12,0.1c0-2.6,0.1-6.4,0.3-11.3l9.7-0.4c0.4,0,0.6-0.2,0.7-0.7V73.5c-3-4.6-11.6-19.2-25.8-43.6
			c0-0.5-0.3-0.7-0.8-0.7L213.6,28.8z"/>
		<path fill="#FFFFFF" d="M315.4,106.8c0-5.3,0-9.3,0.1-11.7l7.7-0.3c0.5,0,0.7-0.2,0.7-0.7V29l-8.3-0.3c0-5.4,0-9.3,0.1-11.7h21.7
			c2.2,0,6,0,11.2-0.1c5.3,0,9.1-0.1,11.7-0.1c0,2.9-0.1,6.8-0.3,11.9l-9.5,0.4c-0.3,0-0.4,0.2-0.4,0.5L350,91.9
			c0,1.4,0.3,2.2,1,2.6c0.7,0.3,2.6,0.5,5.9,0.5c4.8,0,8.9-0.3,12.3-0.9c1.2-0.3,2.2-1.1,2.8-2.6l5.2-14.2
			c5.3,0.8,10.4,1.7,15.3,2.8c-2.1,9.7-4.3,18.7-6.4,27c-10-0.2-26.5-0.3-49.4-0.3c-2.4,0-6.1,0-10.9,0.1
			C320.9,106.8,317.5,106.8,315.4,106.8z"/>
		<path fill="#FFFFFF" d="M400.5,106.6c0-5.3,0.1-9.2,0.2-11.7l8-0.4c0.3,0,0.5-0.1,0.5-0.4l0.2-65.3l-8.6-0.4
			c0-2.8,0.1-6.6,0.3-11.5c2,0,5.5,0,10.7,0.1c5.2,0,9,0.1,11.3,0.1c2.5,0,6.1,0,11-0.1c4.9,0,8.2-0.1,10-0.1
			c0,5.2-0.1,9.1-0.3,11.6l-7.9,0.3c-0.2,0-0.3,0.2-0.3,0.7l-0.1,25.7c0.6,0,2.9-0.2,7-0.7c5.2-4.8,12.6-13.1,22.3-24.8
			c0.5-0.5,0.3-0.8-0.6-0.8l-7.2-0.3c0-5.2,0-9.1,0.1-11.6h22.7c1.8,0,4.5,0,7.8-0.1c3.4,0,5.8-0.1,7.2-0.1c0,5.2-0.1,9.1-0.1,11.6
			l-5.8,0.3c-9.8,9.7-19,18.4-27.3,26.2v1.1c5.2,3.4,10.1,9.6,14.8,18.9c4.1,8.1,6.8,13.2,8,15.1c1.4,2.7,3.2,4.1,5.3,4.2l7.7,0.7
			c0,2.9-0.1,6.8-0.4,11.5c-5.7,0.2-11.3,0.3-16.6,0.3c-2.2,0.1-7.6,0.1-16,0.1c-3.1-4.3-6.8-11.3-10.9-21
			c-5.3-12.6-9.5-18.9-12.6-18.9c-2.8,0-4.7,0-5.7,0.1l-0.1,27.5l8.8,0.4c0,5.3-0.1,9.2-0.1,11.7c-1.9,0-5.3,0-10.2-0.1
			c-4.9,0-8.7-0.1-11.2-0.1c-2.3,0-5.9,0-10.9,0.1C406.3,106.6,402.7,106.6,400.5,106.6z"/>
		<path fill="#FFFFFF" d="M499.3,106.6c0-5.3,0.1-9.2,0.1-11.7l7-0.4c0.4,0,0.7-0.2,0.9-0.7c3.5-8.3,9.1-21.7,16.8-40.4
			c7.7-18.7,12.8-31,15.2-37c2.7-0.3,9.8-0.4,21.1-0.4c4,8.4,9.5,21.9,16.5,40.7c7,18.8,11.7,31.3,14,37.4l7.8,0.7
			c0,1.2,0,3.2-0.1,5.8c-0.1,2.6-0.1,4.6-0.1,5.9h-18.7h-25.5c0-1.4,0-3.4,0.1-6c0-2.6,0.1-4.5,0.1-5.9l7.5-0.4
			c0.6,0,0.8-0.2,0.6-0.6c-0.1-0.2-0.5-1.4-1.3-3.8c-0.8-2.4-1.4-4-1.9-4.7c-0.1-0.4-0.4-0.7-1-0.7l-28.4,0.3
			c-0.2,1-0.6,2.7-1.3,4.9c-0.7,2.3-1.1,3.9-1.3,4.8l8.5,0.4c0,5.2-0.1,9.1-0.1,11.7h-21.5H499.3z M534.1,72.3
			c-0.1,0.2-0.1,0.3-0.1,0.5c0,0.2,0.2,0.3,0.5,0.3h21.2c-0.9-2.7-2.5-7.6-4.9-14.8c-2.4-7.1-4.2-12.7-5.5-16.6h-0.7
			c-1.3,3.9-3.2,9.4-5.7,16.5C536.5,65.3,534.9,70,534.1,72.3z"/>
		<path fill="#FFFFFF" d="M606.2,106.6c0-5.4,0-9.3,0.1-11.7l7.8-0.4c0.4-0.1,0.6-0.3,0.7-0.5c0.1-6.8,0.2-17.7,0.4-32.7
			c0.1-15,0.2-25.7,0.2-32.1l-8.5-0.4c0-3,0.1-6.9,0.3-11.7h38.4c4.9,11.6,12.2,30.3,21.8,56h1.3c2.3-5.9,6.1-15.4,11.2-28.4
			c5.1-13,8.8-22.2,10.9-27.6h35.7c0,2.8-0.1,6.7-0.2,11.7l-6.1,0.4c-0.3,0-0.4,0.2-0.4,0.7c0,15.2,0.1,36.8,0.3,64.6l8.5,0.4
			c0,5.3-0.1,9.2-0.1,11.7H710h-22.4c0-5.4,0-9.3,0.1-11.7l7.3-0.4c0.2,0,0.4-0.2,0.4-0.5c-0.2-20.8-0.4-36.4-0.6-46.8h-1.3
			c-6.5,17-14.4,35-23.6,54.1c-2.8,0.2-7.3,0.3-13.3,0.3c-7.7-16.5-15.4-35.3-23-56.2h-1.4c-0.2,10-0.5,26.4-0.9,49l10.6,0.5
			c0,5.3-0.1,9.2-0.2,11.7h-19.8H606.2z"/>
		<path fill="#FFFFFF" d="M742.4,29.3c0-5.6,0-9.6,0.1-12.1c11-0.3,23.5-0.4,37.3-0.4c9.3,0,16.8,0.8,22.5,2.4
			c6.1,1.8,11.1,5.2,14.9,10.2c3.8,5.1,5.7,10.6,5.7,16.6c0,5.3-1.7,10.3-5.1,14.9s-7.7,8.2-13,10.5c-3.1,1.4-6.9,2.4-11.2,3.1
			c-4.3,0.7-7.7,1.1-10.3,1.1c-4.1,0-6.5,0-7.2-0.1L776,94.9l13.9,0.4c0,5.1-0.1,8.9-0.1,11.3c-2.5,0-6.9,0-13.3-0.1
			c-6.4,0-11.2-0.1-14.5-0.1c-2.2,0-5.5,0-10,0.1c-4.4,0-7.6,0.1-9.5,0.1c0-2.8,0.1-6.6,0.4-11.3l6.8-0.4c0.4,0,0.6-0.2,0.6-0.5
			V29.6L742.4,29.3z M776.2,62.6c0,0.9,1.8,1.3,5.4,1.3c4.1,0,7.5-1.2,10.4-3.5c3.4-3,5.1-7.6,5.1-13.7c0-5.1-1.5-9.4-4.5-12.9
			c-3-3.5-6.7-5.3-11.1-5.3c-2.6,0-4.3,0.1-4.9,0.4L776.2,62.6z"/>
	</g>
	<g>
		<g>
			<path fill="#DB1F1C" d="M12.1,104.6c0-5.3,0.1-9.2,0.2-11.7l8-0.4c0.3,0,0.5-0.1,0.5-0.4l0.1-65.3l-8.6-0.4
				c0-2.8,0.1-6.6,0.3-11.5c2,0,5.5,0,10.7,0.1c5.2,0,9,0.1,11.3,0.1c2.5,0,6.1,0,11-0.1c4.9,0,8.2-0.1,10-0.1
				c0,5.2-0.1,9.1-0.3,11.6l-7.9,0.3c-0.2,0-0.3,0.2-0.3,0.7l-0.1,25.7c0.6,0,2.9-0.2,7-0.7c5.2-4.8,12.6-13.1,22.3-24.8
				c0.5-0.5,0.3-0.8-0.6-0.8l-7.2-0.3c0-5.2,0-9.1,0.1-11.6h22.7c1.8,0,4.5,0,7.8-0.1c3.4,0,5.8-0.1,7.2-0.1c0,5.2-0.1,9.1-0.1,11.6
				l-5.8,0.3C90.5,36.5,81.4,45.2,73,53v1.1c5.2,3.4,10.1,9.6,14.8,18.9c4.1,8.1,6.8,13.2,8,15.1c1.4,2.7,3.2,4.1,5.3,4.2l7.7,0.7
				c0,2.9-0.1,6.8-0.4,11.5c-5.7,0.2-11.3,0.3-16.6,0.3c-2.2,0.1-7.6,0.1-16,0.1c-3.1-4.3-6.8-11.3-10.9-21
				c-5.3-12.6-9.5-18.9-12.6-18.9c-2.8,0-4.7,0-5.7,0.1l-0.1,27.5l8.8,0.4c0,5.3-0.1,9.2-0.1,11.7c-1.9,0-5.3,0-10.2-0.1
				c-4.9,0-8.7-0.1-11.2-0.1c-2.3,0-5.9,0-10.9,0.1C17.9,104.6,14.3,104.6,12.1,104.6z"/>
			<path fill="#DB1F1C" d="M113.3,26.4c0-5.2,0.1-9,0.2-11.5c1.8,0,5.2,0,10.1,0.1c4.9,0,8.4,0.1,10.7,0.1c2.7,0,6.8,0,12.1-0.1
				c5.4,0,9.2-0.1,11.4-0.1c0,5.3-0.1,9.2-0.3,11.6l-10.5,0.3l-0.3,41.8c-0.1,8.6,1.8,14.9,5.6,19c2.9,3,7,4.5,12.3,4.5
				c4.7,0,8.6-1.6,11.6-4.9c3.5-3.5,5.3-10.3,5.3-20.3c0-18.7-0.1-31.9-0.3-39.5c0-0.2-0.2-0.4-0.6-0.5l-10.8-0.3
				c0-1.3,0-3.3,0.1-5.9c0.1-2.6,0.1-4.5,0.1-5.7c1.8,0,5.1,0,9.9,0.1c4.7,0,8.3,0.1,10.6,0.1c2.2,0,5.4,0,9.5-0.1
				c4.1,0,7-0.1,8.7-0.1c0,1.2,0,3.1-0.1,5.7c-0.1,2.6-0.1,4.6-0.1,5.9l-7.3,0.4l-0.3,37.6c-0.1,14.7-3.9,25.4-11.4,32.1
				c-6.8,6.3-16,9.4-27.8,9.4c-13.2,0-23.3-2.8-30.1-8.5c-7.1-6-10.7-15.5-10.7-28.5V27.6c0-0.5-0.3-0.8-0.7-0.8L113.3,26.4z"/>
			<path fill="#DB1F1C" d="M213.6,26.8c0-5.4,0-9.3,0.1-11.7h19.3c3.1,0,7.9,0,14.1-0.1c6.3,0,10.6-0.1,12.9-0.1
				c0,5.4-0.1,9.4-0.1,11.9l-9.2,0.5c4.6,10.1,9.5,20.3,14.8,30.6h0.7c6-10.1,11.3-20.1,15.7-29.9c0.2-0.5,0-0.7-0.4-0.7l-8.3-0.3
				c0-5.4,0-9.4,0.1-12h21.8c1.7,0,4.2,0,7.2-0.1c3.1,0,5.2-0.1,6.4-0.1c0,5.4-0.1,9.4-0.1,12l-6.7,0.4
				c-12.5,19.4-22.3,34.1-29.4,44l-0.1,21.6l11.3,0.4c0,2.6-0.1,6.4-0.3,11.3c-2,0-5.8,0-11.4-0.1c-5.5,0-9.7-0.1-12.5-0.1
				c-2.3,0-6.2,0-11.7,0.1c-5.4,0-9.4,0.1-12,0.1c0-2.6,0.1-6.4,0.3-11.3l9.7-0.4c0.4,0,0.6-0.2,0.7-0.7V71.5
				c-3-4.6-11.6-19.2-25.8-43.6c0-0.5-0.3-0.7-0.8-0.7L213.6,26.8z"/>
			<path fill="#DB1F1C" d="M315.4,104.8c0-5.3,0-9.3,0.1-11.7l7.7-0.3c0.5,0,0.7-0.2,0.7-0.7V27l-8.3-0.3c0-5.4,0-9.3,0.1-11.7h21.7
				c2.2,0,6,0,11.2-0.1c5.3,0,9.1-0.1,11.7-0.1c0,2.9-0.1,6.8-0.3,11.9l-9.5,0.4c-0.3,0-0.4,0.2-0.4,0.5L350,89.9
				c0,1.4,0.3,2.2,1,2.6c0.7,0.3,2.6,0.5,5.9,0.5c4.8,0,8.9-0.3,12.3-0.9c1.2-0.3,2.2-1.1,2.8-2.6l5.2-14.2
				c5.3,0.8,10.4,1.7,15.3,2.8c-2.1,9.7-4.3,18.7-6.4,27c-10-0.2-26.5-0.3-49.4-0.3c-2.4,0-6.1,0-10.9,0.1
				C320.9,104.8,317.5,104.8,315.4,104.8z"/>
			<path fill="#DB1F1C" d="M400.5,104.6c0-5.3,0.1-9.2,0.2-11.7l8-0.4c0.3,0,0.5-0.1,0.5-0.4l0.2-65.3l-8.6-0.4
				c0-2.8,0.1-6.6,0.3-11.5c2,0,5.5,0,10.7,0.1c5.2,0,9,0.1,11.3,0.1c2.5,0,6.1,0,11-0.1c4.9,0,8.2-0.1,10-0.1
				c0,5.2-0.1,9.1-0.3,11.6l-7.9,0.3c-0.2,0-0.3,0.2-0.3,0.7l-0.1,25.7c0.6,0,2.9-0.2,7-0.7c5.2-4.8,12.6-13.1,22.3-24.8
				c0.5-0.5,0.3-0.8-0.6-0.8l-7.2-0.3c0-5.2,0-9.1,0.1-11.6h22.7c1.8,0,4.5,0,7.8-0.1c3.4,0,5.8-0.1,7.2-0.1c0,5.2-0.1,9.1-0.1,11.6
				l-5.8,0.3c-9.8,9.7-19,18.4-27.3,26.2v1.1c5.2,3.4,10.1,9.6,14.8,18.9c4.1,8.1,6.8,13.2,8,15.1c1.4,2.7,3.2,4.1,5.3,4.2l7.7,0.7
				c0,2.9-0.1,6.8-0.4,11.5c-5.7,0.2-11.3,0.3-16.6,0.3c-2.2,0.1-7.6,0.1-16,0.1c-3.1-4.3-6.8-11.3-10.9-21
				c-5.3-12.6-9.5-18.9-12.6-18.9c-2.8,0-4.7,0-5.7,0.1l-0.1,27.5l8.8,0.4c0,5.3-0.1,9.2-0.1,11.7c-1.9,0-5.3,0-10.2-0.1
				c-4.9,0-8.7-0.1-11.2-0.1c-2.3,0-5.9,0-10.9,0.1C406.3,104.6,402.7,104.6,400.5,104.6z"/>
			<path fill="#DB1F1C" d="M499.3,104.6c0-5.3,0.1-9.2,0.1-11.7l7-0.4c0.4,0,0.7-0.2,0.9-0.7c3.5-8.3,9.1-21.7,16.8-40.4
				c7.7-18.7,12.8-31,15.2-37c2.7-0.3,9.8-0.4,21.1-0.4c4,8.4,9.5,21.9,16.5,40.7c7,18.8,11.7,31.3,14,37.4l7.8,0.7
				c0,1.2,0,3.2-0.1,5.8c-0.1,2.6-0.1,4.6-0.1,5.9h-18.7h-25.5c0-1.4,0-3.4,0.1-6c0-2.6,0.1-4.5,0.1-5.9l7.5-0.4
				c0.6,0,0.8-0.2,0.6-0.6c-0.1-0.2-0.5-1.4-1.3-3.8c-0.8-2.4-1.4-4-1.9-4.7c-0.1-0.4-0.4-0.7-1-0.7l-28.4,0.3
				c-0.2,1-0.6,2.7-1.3,4.9c-0.7,2.3-1.1,3.9-1.3,4.8l8.5,0.4c0,5.2-0.1,9.1-0.1,11.7h-21.5H499.3z M534.1,70.3
				c-0.1,0.2-0.1,0.3-0.1,0.5c0,0.2,0.2,0.3,0.5,0.3h21.2c-0.9-2.7-2.5-7.6-4.9-14.8c-2.4-7.1-4.2-12.7-5.5-16.6h-0.7
				c-1.3,3.9-3.2,9.4-5.7,16.5C536.5,63.3,534.9,68,534.1,70.3z"/>
			<path fill="#DB1F1C" d="M606.2,104.6c0-5.4,0-9.3,0.1-11.7l7.8-0.4c0.4-0.1,0.6-0.3,0.7-0.5c0.1-6.8,0.2-17.7,0.4-32.7
				c0.1-15,0.2-25.7,0.2-32.1l-8.5-0.4c0-3,0.1-6.9,0.3-11.7h38.4c4.9,11.6,12.2,30.3,21.8,56h1.3c2.3-5.9,6.1-15.4,11.2-28.4
				c5.1-13,8.8-22.2,10.9-27.6h35.7c0,2.8-0.1,6.7-0.2,11.7l-6.1,0.4c-0.3,0-0.4,0.2-0.4,0.7c0,15.2,0.1,36.8,0.3,64.6l8.5,0.4
				c0,5.3-0.1,9.2-0.1,11.7H710h-22.4c0-5.4,0-9.3,0.1-11.7l7.3-0.4c0.2,0,0.4-0.2,0.4-0.5c-0.2-20.8-0.4-36.4-0.6-46.8h-1.3
				c-6.5,17-14.4,35-23.6,54.1c-2.8,0.2-7.3,0.3-13.3,0.3c-7.7-16.5-15.4-35.3-23-56.2h-1.4c-0.2,10-0.5,26.4-0.9,49l10.6,0.5
				c0,5.3-0.1,9.2-0.2,11.7h-19.8H606.2z"/>
			<path fill="#DB1F1C" d="M742.4,27.3c0-5.6,0-9.6,0.1-12.1c11-0.3,23.5-0.4,37.3-0.4c9.3,0,16.8,0.8,22.5,2.4
				c6.1,1.8,11.1,5.2,14.9,10.2c3.8,5.1,5.7,10.6,5.7,16.6c0,5.3-1.7,10.3-5.1,14.9s-7.7,8.2-13,10.5c-3.1,1.4-6.9,2.4-11.2,3.1
				c-4.3,0.7-7.7,1.1-10.3,1.1c-4.1,0-6.5,0-7.2-0.1L776,92.9l13.9,0.4c0,5.1-0.1,8.9-0.1,11.3c-2.5,0-6.9,0-13.3-0.1
				c-6.4,0-11.2-0.1-14.5-0.1c-2.2,0-5.5,0-10,0.1c-4.4,0-7.6,0.1-9.5,0.1c0-2.8,0.1-6.6,0.4-11.3l6.8-0.4c0.4,0,0.6-0.2,0.6-0.5
				V27.6L742.4,27.3z M776.2,60.6c0,0.9,1.8,1.3,5.4,1.3c4.1,0,7.5-1.2,10.4-3.5c3.4-3,5.1-7.6,5.1-13.7c0-5.1-1.5-9.4-4.5-12.9
				c-3-3.5-6.7-5.3-11.1-5.3c-2.6,0-4.3,0.1-4.9,0.4L776.2,60.6z"/>
		</g>
	</g>
</g>
</svg>
